M48
;DRILL file {KiCad 5.0.0-rc2-dev-unknown-0f0d9af~63~ubuntu16.04.1} date Thu Mar 29 12:16:34 2018
;FORMAT={-:-/ absolute / inch / decimal}
FMAT,2
INCH,TZ
T1C0.0157
T2C0.0300
T3C0.0394
T4C0.0400
T5C0.0600
T6C0.1181
T7C0.1260
%
G90
G05
M72
T1
X3.1199Y-4.2807
X3.1898Y-4.4858
X3.5Y-1.925
X3.5199Y-3.4852
X3.5772Y-3.9544
X3.5799Y-2.7089
X3.5807Y-3.503
X3.5815Y-2.8578
X3.5836Y-3.2544
X3.5961Y-3.2141
X3.5999Y-2.4807
X3.602Y-2.7692
X3.606Y-2.6201
X3.6099Y-2.8292
X3.6099Y-3.1407
X3.6124Y-2.6589
X3.6199Y-3.0607
X3.6199Y-2.9007
X3.6223Y-3.1033
X3.6241Y-2.6965
X3.6276Y-3.588
X3.6323Y-3.0233
X3.6399Y-2.9407
X3.6556Y-3.6624
X3.6799Y-3.2907
X3.688Y-3.5644
X3.6899Y-3.3355
X3.7211Y-3.8858
X3.7307Y-2.5766
X3.7399Y-3.3907
X3.7697Y-2.5709
X3.7999Y-4.1507
X3.8015Y-2.6927
X3.8244Y-2.8231
X3.8597Y-2.8405
X3.9076Y-3.5184
X3.9219Y-3.479
X3.9497Y-3.4512
X3.9499Y-2.6007
X3.9599Y-3.3902
X3.9662Y-3.0227
X3.9699Y-4.0107
X3.9713Y-2.723
X3.9788Y-3.4247
X4.0099Y-2.7307
X4.017Y-3.3925
X4.0395Y-2.6966
X4.0499Y-2.5907
X4.0523Y-2.6537
X4.0799Y-3.3107
X4.1199Y-2.4907
X4.1399Y-2.6907
X4.1899Y-2.7507
X4.3099Y-3.4207
X4.3862Y-3.3857
X4.4099Y-3.2507
X4.414Y-2.3247
X4.4306Y-3.5043
X4.4383Y-3.2234
X4.4517Y-3.3327
X4.4899Y-3.1907
X4.4991Y-3.309
X4.4999Y-2.4107
X4.5Y-2.325
X4.5009Y-3.3661
X4.5185Y-3.4013
X4.5199Y-3.1007
X4.5363Y-2.4255
X4.5513Y-3.5005
X4.568Y-2.8488
X4.5799Y-2.3607
X4.5799Y-3.4707
X4.7399Y-3.3407
X4.7399Y-3.3907
X4.7509Y-3.4416
X4.7599Y-2.2407
X4.7999Y-4.7707
X4.8299Y-2.9407
X4.9199Y-4.4007
X4.9399Y-3.4007
X4.9399Y-3.4407
X4.9499Y-2.8007
X4.9499Y-3.3607
X4.9799Y-3.0507
X5.0424Y-2.7907
X5.075Y-2.35
X5.2172Y-2.738
X5.3099Y-3.2307
X5.3299Y-2.2007
X5.3612Y-2.4935
X5.7099Y-4.7107
T2
X5.2792Y-3.1514
X5.3499Y-3.0807
X3.6199Y-3.3607
X3.6199Y-3.4607
T3
X3.6699Y-4.2307
X3.6699Y-4.3307
X3.6699Y-4.9307
X3.6699Y-5.0307
X3.7699Y-4.2307
X3.7699Y-4.3307
X3.7699Y-4.9307
X3.7699Y-5.0307
X3.8699Y-4.2307
X3.8699Y-4.3307
X3.8699Y-4.9307
X3.8699Y-5.0307
X3.9699Y-4.2307
X3.9699Y-4.3307
X3.9699Y-4.8307
X3.9699Y-4.9307
X3.9699Y-5.0307
X3.9699Y-5.1307
X4.0699Y-4.2307
X4.0699Y-4.3307
X4.0699Y-4.9307
X4.0699Y-5.0307
X4.1699Y-4.2307
X4.1699Y-4.3307
X4.1699Y-4.9307
X4.1699Y-5.0307
X4.2699Y-4.2307
X4.2699Y-4.3307
X4.2699Y-4.9307
X4.2699Y-5.0307
X4.3699Y-4.2307
X4.3699Y-4.3307
X4.3699Y-4.9307
X4.3699Y-5.0307
X4.4699Y-4.2307
X4.4699Y-4.3307
X4.4699Y-4.9307
X4.4699Y-5.0307
X4.5699Y-4.2307
X4.5699Y-4.3307
X4.5699Y-4.9307
X4.5699Y-5.0307
X4.5699Y-5.1307
X4.6699Y-4.2307
X4.6699Y-4.3307
X4.6699Y-4.9307
X4.6699Y-5.0307
X4.7699Y-4.2307
X4.7699Y-4.3307
X4.7699Y-4.8307
X4.7699Y-4.9307
X4.7699Y-5.0307
X4.7699Y-5.1307
X4.8699Y-4.2307
X4.8699Y-4.3307
X4.8699Y-4.4307
X4.8699Y-4.8307
X4.8699Y-4.9307
X4.8699Y-5.0307
X4.8699Y-5.1307
X4.9699Y-4.2307
X4.9699Y-4.3307
X4.9699Y-4.4307
X4.9699Y-4.5307
X4.9699Y-4.6307
X4.9699Y-4.7307
X4.9699Y-4.8307
X4.9699Y-4.9307
X4.9699Y-5.0307
X5.0699Y-4.2307
X5.0699Y-4.3307
X5.0699Y-4.4307
X5.0699Y-4.5307
X5.0699Y-4.6307
X5.0699Y-4.7307
X5.0699Y-4.8307
X5.0699Y-4.9307
X5.0699Y-5.0307
X5.1699Y-4.4307
X5.1699Y-4.5307
X5.1699Y-4.6307
X5.1699Y-4.7307
X5.1699Y-4.8307
X5.2699Y-4.4307
X5.2699Y-4.5307
X5.2699Y-4.6307
X5.2699Y-4.7307
X5.2699Y-4.8307
X5.1526Y-2.3006
X5.125Y-2.6037
X3.15Y-1.925
X4.5546Y-1.6727
X4.5997Y-1.5948
X4.5997Y-1.7507
X4.6448Y-1.6727
X4.6899Y-1.5948
X4.6899Y-1.7507
X4.735Y-1.6727
X4.78Y-1.5948
X4.78Y-1.7507
X4.8251Y-1.6727
X4.8702Y-1.5948
X4.8702Y-1.7507
X4.9153Y-1.6727
X4.9604Y-1.5948
X4.9604Y-1.7507
X4.2628Y-2.4699
T4
X3.1553Y-2.2315
X3.1553Y-2.3315
X3.1553Y-2.4315
X3.1553Y-2.5315
X3.1553Y-2.6315
X3.1553Y-2.7315
X3.1553Y-2.8315
X3.1553Y-2.9315
X3.1553Y-3.0315
X3.1553Y-3.1315
X3.1553Y-3.2315
X3.1553Y-3.3315
X3.1553Y-3.4315
X3.1553Y-3.5315
X3.1553Y-3.6315
X3.1553Y-3.7315
X3.1553Y-3.8315
X3.1553Y-3.9315
X3.1553Y-4.0315
X3.1553Y-4.1315
X3.1553Y-4.2315
X3.1553Y-4.3315
X3.1553Y-4.4315
X3.1553Y-4.5315
X3.1553Y-4.6315
X3.2553Y-1.5315
X3.2553Y-1.6315
X3.2553Y-1.7315
X3.2553Y-1.8315
X3.2553Y-2.2315
X3.2553Y-2.3315
X3.2553Y-2.4315
X3.2553Y-2.5315
X3.2553Y-2.6315
X3.2553Y-2.7315
X3.2553Y-2.8315
X3.2553Y-2.9315
X3.2553Y-3.0315
X3.2553Y-3.1315
X3.2553Y-3.2315
X3.2553Y-3.3315
X3.2553Y-3.4315
X3.2553Y-3.5315
X3.2553Y-3.6315
X3.2553Y-3.7315
X3.2553Y-3.8315
X3.2553Y-3.9315
X3.2553Y-4.0315
X3.2553Y-4.1315
X3.2553Y-4.2315
X3.2553Y-4.3315
X3.2553Y-4.4315
X3.2553Y-4.5315
X3.2553Y-4.6315
X3.3553Y-1.5315
X3.3553Y-1.6315
X3.3553Y-1.7315
X3.3553Y-1.8315
X3.3553Y-2.2315
X3.3553Y-2.3315
X3.3553Y-2.4315
X3.3553Y-2.5315
X3.3553Y-2.6315
X3.3553Y-2.7315
X3.3553Y-2.8315
X3.3553Y-2.9315
X3.3553Y-3.0315
X3.3553Y-3.1315
X3.3553Y-3.2315
X3.3553Y-3.3315
X3.3553Y-3.4315
X3.3553Y-3.5315
X3.3553Y-3.6315
X3.3553Y-3.7315
X3.3553Y-3.8315
X3.3553Y-3.9315
X3.3553Y-4.0315
X3.3553Y-4.1315
X3.3553Y-4.2315
X3.3553Y-4.3315
X3.3553Y-4.4315
X3.3553Y-4.5315
X3.3553Y-4.6315
X3.4553Y-2.2315
X3.4553Y-2.3315
X3.4553Y-2.4315
X3.4553Y-2.5315
X3.4553Y-2.6315
X3.4553Y-2.7315
X3.4553Y-2.8315
X3.4553Y-2.9315
X3.4553Y-3.0315
X3.4553Y-3.1315
X3.4553Y-3.2315
X3.4553Y-3.3315
X3.4553Y-3.4315
X3.4553Y-3.5315
X3.4553Y-3.6315
X3.4553Y-3.7315
X3.4553Y-3.8315
X3.4553Y-3.9315
X3.4553Y-4.0315
X3.4553Y-4.1315
X3.4553Y-4.2315
X3.4553Y-4.3315
X3.4553Y-4.4315
X3.4553Y-4.5315
X3.4553Y-4.6315
X4.8553Y-2.0315
X4.8553Y-2.1315
X4.9553Y-2.0315
X4.9553Y-2.1315
X5.0553Y-2.0315
X5.0553Y-2.1315
X5.1553Y-2.0315
X5.1553Y-2.1315
X5.2553Y-2.0315
X5.2553Y-2.1315
X5.4553Y-2.2315
X5.4553Y-2.3315
X5.4553Y-2.4315
X5.4553Y-2.5315
X5.4553Y-2.6315
X5.4553Y-2.7315
X5.4553Y-2.8315
X5.4553Y-2.9315
X5.4553Y-3.0315
X5.4553Y-3.1315
X5.4553Y-3.2315
X5.4553Y-3.3315
X5.4553Y-3.4315
X5.4553Y-3.5315
X5.4553Y-3.6315
X5.4553Y-3.7315
X5.4553Y-3.8315
X5.4553Y-3.9315
X5.4553Y-4.0315
X5.4553Y-4.1315
X5.4553Y-4.2315
X5.4553Y-4.3315
X5.4553Y-4.4315
X5.4553Y-4.5315
X5.4553Y-4.6315
X5.4553Y-4.8315
X5.4553Y-4.9315
X5.5553Y-2.2315
X5.5553Y-2.3315
X5.5553Y-2.4315
X5.5553Y-2.5315
X5.5553Y-2.6315
X5.5553Y-2.7315
X5.5553Y-2.8315
X5.5553Y-2.9315
X5.5553Y-3.0315
X5.5553Y-3.1315
X5.5553Y-3.2315
X5.5553Y-3.3315
X5.5553Y-3.4315
X5.5553Y-3.5315
X5.5553Y-3.6315
X5.5553Y-3.7315
X5.5553Y-3.8315
X5.5553Y-3.9315
X5.5553Y-4.0315
X5.5553Y-4.1315
X5.5553Y-4.2315
X5.5553Y-4.3315
X5.5553Y-4.4315
X5.5553Y-4.5315
X5.5553Y-4.6315
X5.5553Y-4.8315
X5.5553Y-4.9315
X5.6553Y-1.5315
X5.6553Y-1.6315
X5.6553Y-1.7315
X5.6553Y-1.8315
X5.6553Y-1.9315
X5.6553Y-2.2315
X5.6553Y-2.3315
X5.6553Y-2.4315
X5.6553Y-2.5315
X5.6553Y-2.6315
X5.6553Y-2.7315
X5.6553Y-2.8315
X5.6553Y-2.9315
X5.6553Y-3.0315
X5.6553Y-3.1315
X5.6553Y-3.2315
X5.6553Y-3.3315
X5.6553Y-3.4315
X5.6553Y-3.5315
X5.6553Y-3.6315
X5.6553Y-3.7315
X5.6553Y-3.8315
X5.6553Y-3.9315
X5.6553Y-4.0315
X5.6553Y-4.1315
X5.6553Y-4.2315
X5.6553Y-4.3315
X5.6553Y-4.4315
X5.6553Y-4.5315
X5.6553Y-4.6315
X5.6553Y-4.8315
X5.6553Y-4.9315
X5.7553Y-1.5315
X5.7553Y-1.6315
X5.7553Y-1.7315
X5.7553Y-1.8315
X5.7553Y-1.9315
X5.7553Y-2.2315
X5.7553Y-2.3315
X5.7553Y-2.4315
X5.7553Y-2.5315
X5.7553Y-2.6315
X5.7553Y-2.7315
X5.7553Y-2.8315
X5.7553Y-2.9315
X5.7553Y-3.0315
X5.7553Y-3.1315
X5.7553Y-3.2315
X5.7553Y-3.3315
X5.7553Y-3.4315
X5.7553Y-3.5315
X5.7553Y-3.6315
X5.7553Y-3.7315
X5.7553Y-3.8315
X5.7553Y-3.9315
X5.7553Y-4.0315
X5.7553Y-4.1315
X5.7553Y-4.2315
X5.7553Y-4.3315
X5.7553Y-4.4315
X5.7553Y-4.5315
X5.7553Y-4.6315
X5.7553Y-4.8315
X5.7553Y-4.9315
T5
X3.1553Y-4.8315
X3.1553Y-4.9315
X3.2429Y-2.0315
X3.2429Y-2.1315
X3.2553Y-4.8315
X3.2553Y-4.9315
X3.3553Y-2.0315
X3.3553Y-2.1315
X3.3553Y-4.8315
X3.3553Y-4.9315
X3.4553Y-4.8315
X3.4553Y-4.9315
T6
X4.1762Y-4.7179
X3.8179Y-1.8045
X3.9872Y-3.8293
X4.1762Y-4.4935
T7
X4.2775Y-1.67
X5.2617Y-1.67
T0
M30
