G04 #@! TF.GenerationSoftware,KiCad,Pcbnew,5.0.0-rc2-dev-unknown-0f0d9af~63~ubuntu16.04.1*
G04 #@! TF.CreationDate,2018-03-29T12:16:37-07:00*
G04 #@! TF.ProjectId,mojoback_sram,6D6F6A6F6261636B5F7372616D2E6B69,rev?*
G04 #@! TF.SameCoordinates,Original*
G04 #@! TF.FileFunction,Legend,Top*
G04 #@! TF.FilePolarity,Positive*
%FSLAX46Y46*%
G04 Gerber Fmt 4.6, Leading zero omitted, Abs format (unit mm)*
G04 Created by KiCad (PCBNEW 5.0.0-rc2-dev-unknown-0f0d9af~63~ubuntu16.04.1) date Thu Mar 29 12:16:37 2018*
%MOMM*%
%LPD*%
G01*
G04 APERTURE LIST*
%ADD10C,0.120000*%
%ADD11C,0.150000*%
G04 APERTURE END LIST*
D10*
X98795000Y-104669000D02*
X100795000Y-104669000D01*
X100795000Y-102629000D02*
X98795000Y-102629000D01*
X132117000Y-64537000D02*
X134117000Y-64537000D01*
X134117000Y-62497000D02*
X132117000Y-62497000D01*
X100081000Y-61735000D02*
X98081000Y-61735000D01*
X98081000Y-63775000D02*
X100081000Y-63775000D01*
X122683000Y-119357000D02*
X122683000Y-117357000D01*
X120643000Y-117357000D02*
X120643000Y-119357000D01*
X89275000Y-38035000D02*
X93325000Y-38035000D01*
X89275000Y-39735000D02*
X93325000Y-39735000D01*
X89225000Y-38035000D02*
X89225000Y-39735000D01*
D11*
X100463500Y-51600001D02*
X92843500Y-51600001D01*
X100463500Y-61760001D02*
X100463500Y-51600001D01*
X92843500Y-61760001D02*
X100463500Y-61760001D01*
X92843500Y-51600001D02*
X92843500Y-61760001D01*
X118243500Y-49060001D02*
X110623500Y-49060001D01*
X118243500Y-56680001D02*
X118243500Y-49060001D01*
X110623500Y-56680001D02*
X118243500Y-56680001D01*
X110623500Y-49060001D02*
X110623500Y-56680001D01*
X90303500Y-49060001D02*
X90303500Y-64300001D01*
X105543500Y-49060001D02*
X90303500Y-49060001D01*
X105543500Y-64300001D02*
X105543500Y-49060001D01*
X90303500Y-64300001D02*
X105543500Y-64300001D01*
X81413500Y-37884001D02*
X86493500Y-37884001D01*
X83953500Y-118910001D02*
X83953500Y-55410001D01*
X142373500Y-118910001D02*
X83953500Y-118910001D01*
X142373500Y-55410001D02*
X142373500Y-118910001D01*
X136023500Y-55410001D02*
X142373500Y-55410001D01*
X136023500Y-50330001D02*
X136023500Y-55410001D01*
X120783500Y-50330001D02*
X136023500Y-50330001D01*
X120783500Y-55410001D02*
X120783500Y-50330001D01*
X83953500Y-55410001D02*
X120783500Y-55410001D01*
X83953500Y-55410001D02*
X80778500Y-55410001D01*
X80778500Y-55410001D02*
X80778500Y-50330001D01*
X80778500Y-50330001D02*
X87128500Y-50330001D01*
X87128500Y-50330001D02*
X87128500Y-55410001D01*
X83953500Y-55410001D02*
X83953500Y-50330001D01*
D10*
X92325000Y-43705000D02*
X90325000Y-43705000D01*
X90325000Y-41565000D02*
X92325000Y-41565000D01*
X106425000Y-53955000D02*
X104425000Y-53955000D01*
X104425000Y-51815000D02*
X106425000Y-51815000D01*
X104425000Y-55565000D02*
X106425000Y-55565000D01*
X106425000Y-57705000D02*
X104425000Y-57705000D01*
X111675000Y-57705000D02*
X109675000Y-57705000D01*
X109675000Y-55565000D02*
X111675000Y-55565000D01*
X109675000Y-51815000D02*
X111675000Y-51815000D01*
X111675000Y-53955000D02*
X109675000Y-53955000D01*
X116925000Y-57705000D02*
X114925000Y-57705000D01*
X114925000Y-55565000D02*
X116925000Y-55565000D01*
X114925000Y-51815000D02*
X116925000Y-51815000D01*
X116925000Y-53955000D02*
X114925000Y-53955000D01*
D11*
X110385000Y-121059000D02*
X110905000Y-121529000D01*
X110275000Y-120539000D02*
X110385000Y-121059000D01*
X110275000Y-119429000D02*
X110275000Y-120539000D01*
X110545000Y-118479000D02*
X110275000Y-119429000D01*
X110275000Y-114759000D02*
X110625000Y-114199000D01*
X110235000Y-115709000D02*
X110275000Y-114759000D01*
X110385000Y-116619000D02*
X110235000Y-115709000D01*
X110905000Y-117219000D02*
X110385000Y-116619000D01*
X116055000Y-117249000D02*
X115935000Y-116459000D01*
X115935000Y-119039000D02*
X116015000Y-118169000D01*
X115935000Y-116499000D02*
X114515000Y-117219000D01*
X115815000Y-118919000D02*
X114515000Y-118439000D01*
X114395000Y-117489000D02*
X113915000Y-117219000D01*
X116095000Y-116939000D02*
X114395000Y-117489000D01*
X114355000Y-118089000D02*
X113955000Y-118319000D01*
X115855000Y-118359000D02*
X114355000Y-118089000D01*
X118155000Y-114639000D02*
X117275000Y-114499000D01*
X118925000Y-114899000D02*
X118155000Y-114639000D01*
X119365000Y-116249000D02*
X118925000Y-114899000D01*
X119395000Y-118079000D02*
X119365000Y-116249000D01*
X119395000Y-119279000D02*
X119395000Y-118079000D01*
X118705000Y-120269000D02*
X119395000Y-119279000D01*
X117425000Y-120519000D02*
X118705000Y-120269000D01*
X116805000Y-116289000D02*
X117245000Y-115959000D01*
X116875000Y-117089000D02*
X117685000Y-116829000D01*
X116955000Y-117779000D02*
X117825000Y-117779000D01*
X116765000Y-118659000D02*
X117495000Y-118919000D01*
X114755000Y-114059000D02*
X114505000Y-113439000D01*
X115595000Y-114969000D02*
X114755000Y-114059000D01*
X116625000Y-115009000D02*
X115595000Y-114969000D01*
X115745000Y-119789000D02*
X116695000Y-119869000D01*
X114945000Y-120449000D02*
X115745000Y-119789000D01*
X114725000Y-121509000D02*
X114945000Y-120449000D01*
X113585000Y-116869000D02*
X111035000Y-114899000D01*
X111035000Y-116759000D02*
X113185000Y-114719000D01*
X113250288Y-119899000D02*
G75*
G03X113250288Y-119899000I-1345288J0D01*
G01*
X117884119Y-117709000D02*
G75*
G03X117884119Y-117709000I-4879119J0D01*
G01*
X92275000Y-112619000D02*
X92275000Y-109119000D01*
X92275000Y-126119000D02*
X92275000Y-121619000D01*
X130275000Y-124119000D02*
X92275000Y-124119000D01*
X124775000Y-131619000D02*
X124775000Y-128619000D01*
X99775000Y-131619000D02*
X124775000Y-131619000D01*
X99775000Y-131119000D02*
X99775000Y-131619000D01*
X99775000Y-128619000D02*
X99775000Y-131119000D01*
X92275000Y-128619000D02*
X92275000Y-126119000D01*
X130275000Y-128619000D02*
X92275000Y-128619000D01*
X130275000Y-126119000D02*
X130275000Y-128619000D01*
X92275000Y-106619000D02*
X92275000Y-109119000D01*
X129775000Y-106619000D02*
X92275000Y-106619000D01*
X129775000Y-109119000D02*
X129775000Y-106619000D01*
X125275000Y-109119000D02*
X125275000Y-126119000D01*
X92275000Y-111119000D02*
X130275000Y-111119000D01*
X130275000Y-109119000D02*
X92275000Y-109119000D01*
X92275000Y-126119000D02*
X130275000Y-126119000D01*
X92072000Y-126001000D02*
X92072000Y-108983000D01*
X130172000Y-108983000D02*
X130172000Y-126255000D01*
X92072000Y-125874000D02*
X92072000Y-126255000D01*
X91310000Y-121683000D02*
X94993000Y-121683000D01*
X94993000Y-121683000D02*
X95374000Y-121302000D01*
X95374000Y-121302000D02*
X95374000Y-113174000D01*
X95374000Y-113174000D02*
X94993000Y-112793000D01*
X94993000Y-112793000D02*
X91056000Y-112793000D01*
X91056000Y-112793000D02*
X91056000Y-121683000D01*
X91056000Y-121683000D02*
X91437000Y-121683000D01*
X91818000Y-120540000D02*
X91818000Y-119905000D01*
X91818000Y-119905000D02*
X94612000Y-119905000D01*
X94612000Y-119905000D02*
X94485000Y-120540000D01*
X94485000Y-120540000D02*
X91818000Y-120540000D01*
X91818000Y-115079000D02*
X91818000Y-114571000D01*
X91818000Y-114571000D02*
X94612000Y-114571000D01*
X94612000Y-114571000D02*
X94612000Y-115206000D01*
X94612000Y-115206000D02*
X91818000Y-115206000D01*
X95247000Y-118381000D02*
X94739000Y-118381000D01*
X94739000Y-118381000D02*
X94739000Y-116603000D01*
X94739000Y-116603000D02*
X95247000Y-116730000D01*
X95120000Y-120667000D02*
X95120000Y-118635000D01*
X95247000Y-116476000D02*
X95120000Y-116222000D01*
X95120000Y-116222000D02*
X95120000Y-113555000D01*
X98295000Y-121429000D02*
X103375000Y-121556000D01*
X103375000Y-121556000D02*
X103375000Y-112412000D01*
X103375000Y-112412000D02*
X98168000Y-112412000D01*
X98168000Y-112412000D02*
X98295000Y-121302000D01*
X102359000Y-120286000D02*
X99438000Y-120286000D01*
X102232000Y-119016000D02*
X99565000Y-118889000D01*
X102486000Y-117492000D02*
X99692000Y-117492000D01*
X102359000Y-116349000D02*
X99438000Y-116349000D01*
X102359000Y-114952000D02*
X99565000Y-114952000D01*
X102613000Y-113936000D02*
X99565000Y-113809000D01*
D10*
X116833000Y-46598325D02*
X117083000Y-47031338D01*
X116583000Y-47031338D02*
X116833000Y-46598325D01*
X117083000Y-47031338D02*
X116583000Y-47031338D01*
X105663000Y-46137000D02*
X105663000Y-37537000D01*
X136633000Y-46137000D02*
X105663000Y-46137000D01*
X136633000Y-37537000D02*
X136633000Y-46137000D01*
D11*
X99628333Y-102256142D02*
X99580714Y-102303761D01*
X99437857Y-102351380D01*
X99342619Y-102351380D01*
X99199761Y-102303761D01*
X99104523Y-102208523D01*
X99056904Y-102113285D01*
X99009285Y-101922809D01*
X99009285Y-101779952D01*
X99056904Y-101589476D01*
X99104523Y-101494238D01*
X99199761Y-101399000D01*
X99342619Y-101351380D01*
X99437857Y-101351380D01*
X99580714Y-101399000D01*
X99628333Y-101446619D01*
X100580714Y-102351380D02*
X100009285Y-102351380D01*
X100295000Y-102351380D02*
X100295000Y-101351380D01*
X100199761Y-101494238D01*
X100104523Y-101589476D01*
X100009285Y-101637095D01*
X132950333Y-65624142D02*
X132902714Y-65671761D01*
X132759857Y-65719380D01*
X132664619Y-65719380D01*
X132521761Y-65671761D01*
X132426523Y-65576523D01*
X132378904Y-65481285D01*
X132331285Y-65290809D01*
X132331285Y-65147952D01*
X132378904Y-64957476D01*
X132426523Y-64862238D01*
X132521761Y-64767000D01*
X132664619Y-64719380D01*
X132759857Y-64719380D01*
X132902714Y-64767000D01*
X132950333Y-64814619D01*
X133331285Y-64814619D02*
X133378904Y-64767000D01*
X133474142Y-64719380D01*
X133712238Y-64719380D01*
X133807476Y-64767000D01*
X133855095Y-64814619D01*
X133902714Y-64909857D01*
X133902714Y-65005095D01*
X133855095Y-65147952D01*
X133283666Y-65719380D01*
X133902714Y-65719380D01*
X98914333Y-61362142D02*
X98866714Y-61409761D01*
X98723857Y-61457380D01*
X98628619Y-61457380D01*
X98485761Y-61409761D01*
X98390523Y-61314523D01*
X98342904Y-61219285D01*
X98295285Y-61028809D01*
X98295285Y-60885952D01*
X98342904Y-60695476D01*
X98390523Y-60600238D01*
X98485761Y-60505000D01*
X98628619Y-60457380D01*
X98723857Y-60457380D01*
X98866714Y-60505000D01*
X98914333Y-60552619D01*
X99247666Y-60457380D02*
X99866714Y-60457380D01*
X99533380Y-60838333D01*
X99676238Y-60838333D01*
X99771476Y-60885952D01*
X99819095Y-60933571D01*
X99866714Y-61028809D01*
X99866714Y-61266904D01*
X99819095Y-61362142D01*
X99771476Y-61409761D01*
X99676238Y-61457380D01*
X99390523Y-61457380D01*
X99295285Y-61409761D01*
X99247666Y-61362142D01*
X120270142Y-118523666D02*
X120317761Y-118571285D01*
X120365380Y-118714142D01*
X120365380Y-118809380D01*
X120317761Y-118952238D01*
X120222523Y-119047476D01*
X120127285Y-119095095D01*
X119936809Y-119142714D01*
X119793952Y-119142714D01*
X119603476Y-119095095D01*
X119508238Y-119047476D01*
X119413000Y-118952238D01*
X119365380Y-118809380D01*
X119365380Y-118714142D01*
X119413000Y-118571285D01*
X119460619Y-118523666D01*
X119698714Y-117666523D02*
X120365380Y-117666523D01*
X119317761Y-117904619D02*
X120032047Y-118142714D01*
X120032047Y-117523666D01*
X92572142Y-41109380D02*
X92095952Y-41109380D01*
X92095952Y-40109380D01*
X92905476Y-40585571D02*
X93238809Y-40585571D01*
X93381666Y-41109380D02*
X92905476Y-41109380D01*
X92905476Y-40109380D01*
X93381666Y-40109380D01*
X93810238Y-41109380D02*
X93810238Y-40109380D01*
X94048333Y-40109380D01*
X94191190Y-40157000D01*
X94286428Y-40252238D01*
X94334047Y-40347476D01*
X94381666Y-40537952D01*
X94381666Y-40680809D01*
X94334047Y-40871285D01*
X94286428Y-40966523D01*
X94191190Y-41061761D01*
X94048333Y-41109380D01*
X93810238Y-41109380D01*
X87575000Y-52696904D02*
X87527380Y-52792142D01*
X87527380Y-52935000D01*
X87575000Y-53077857D01*
X87670238Y-53173095D01*
X87765476Y-53220714D01*
X87955952Y-53268333D01*
X88098809Y-53268333D01*
X88289285Y-53220714D01*
X88384523Y-53173095D01*
X88479761Y-53077857D01*
X88527380Y-52935000D01*
X88527380Y-52839761D01*
X88479761Y-52696904D01*
X88432142Y-52649285D01*
X88098809Y-52649285D01*
X88098809Y-52839761D01*
X88527380Y-52220714D02*
X87527380Y-52220714D01*
X88527380Y-51649285D01*
X87527380Y-51649285D01*
X88527380Y-51173095D02*
X87527380Y-51173095D01*
X87527380Y-50935000D01*
X87575000Y-50792142D01*
X87670238Y-50696904D01*
X87765476Y-50649285D01*
X87955952Y-50601666D01*
X88098809Y-50601666D01*
X88289285Y-50649285D01*
X88384523Y-50696904D01*
X88479761Y-50792142D01*
X88527380Y-50935000D01*
X88527380Y-51173095D01*
X79227380Y-53073095D02*
X79227380Y-52454047D01*
X79608333Y-52787380D01*
X79608333Y-52644523D01*
X79655952Y-52549285D01*
X79703571Y-52501666D01*
X79798809Y-52454047D01*
X80036904Y-52454047D01*
X80132142Y-52501666D01*
X80179761Y-52549285D01*
X80227380Y-52644523D01*
X80227380Y-52930238D01*
X80179761Y-53025476D01*
X80132142Y-53073095D01*
X79227380Y-52168333D02*
X80227380Y-51835000D01*
X79227380Y-51501666D01*
X79227380Y-51263571D02*
X79227380Y-50644523D01*
X79608333Y-50977857D01*
X79608333Y-50835000D01*
X79655952Y-50739761D01*
X79703571Y-50692142D01*
X79798809Y-50644523D01*
X80036904Y-50644523D01*
X80132142Y-50692142D01*
X80179761Y-50739761D01*
X80227380Y-50835000D01*
X80227380Y-51120714D01*
X80179761Y-51215952D01*
X80132142Y-51263571D01*
X141895666Y-47848047D02*
X141895666Y-47371857D01*
X142181380Y-47943285D02*
X141181380Y-47609952D01*
X142181380Y-47276619D01*
X142181380Y-46943285D02*
X141181380Y-46943285D01*
X142181380Y-46371857D01*
X141181380Y-46371857D01*
X141895666Y-45943285D02*
X141895666Y-45467095D01*
X142181380Y-46038523D02*
X141181380Y-45705190D01*
X142181380Y-45371857D01*
X142181380Y-44562333D02*
X142181380Y-45038523D01*
X141181380Y-45038523D01*
X141181380Y-44038523D02*
X141181380Y-43848047D01*
X141229000Y-43752809D01*
X141324238Y-43657571D01*
X141514714Y-43609952D01*
X141848047Y-43609952D01*
X142038523Y-43657571D01*
X142133761Y-43752809D01*
X142181380Y-43848047D01*
X142181380Y-44038523D01*
X142133761Y-44133761D01*
X142038523Y-44229000D01*
X141848047Y-44276619D01*
X141514714Y-44276619D01*
X141324238Y-44229000D01*
X141229000Y-44133761D01*
X141181380Y-44038523D01*
X141229000Y-42657571D02*
X141181380Y-42752809D01*
X141181380Y-42895666D01*
X141229000Y-43038523D01*
X141324238Y-43133761D01*
X141419476Y-43181380D01*
X141609952Y-43229000D01*
X141752809Y-43229000D01*
X141943285Y-43181380D01*
X142038523Y-43133761D01*
X142133761Y-43038523D01*
X142181380Y-42895666D01*
X142181380Y-42800428D01*
X142133761Y-42657571D01*
X142086142Y-42609952D01*
X141752809Y-42609952D01*
X141752809Y-42800428D01*
X91158333Y-44937380D02*
X90825000Y-44461190D01*
X90586904Y-44937380D02*
X90586904Y-43937380D01*
X90967857Y-43937380D01*
X91063095Y-43985000D01*
X91110714Y-44032619D01*
X91158333Y-44127857D01*
X91158333Y-44270714D01*
X91110714Y-44365952D01*
X91063095Y-44413571D01*
X90967857Y-44461190D01*
X90586904Y-44461190D01*
X92110714Y-44937380D02*
X91539285Y-44937380D01*
X91825000Y-44937380D02*
X91825000Y-43937380D01*
X91729761Y-44080238D01*
X91634523Y-44175476D01*
X91539285Y-44223095D01*
X101938333Y-53555380D02*
X101605000Y-53079190D01*
X101366904Y-53555380D02*
X101366904Y-52555380D01*
X101747857Y-52555380D01*
X101843095Y-52603000D01*
X101890714Y-52650619D01*
X101938333Y-52745857D01*
X101938333Y-52888714D01*
X101890714Y-52983952D01*
X101843095Y-53031571D01*
X101747857Y-53079190D01*
X101366904Y-53079190D01*
X102319285Y-52650619D02*
X102366904Y-52603000D01*
X102462142Y-52555380D01*
X102700238Y-52555380D01*
X102795476Y-52603000D01*
X102843095Y-52650619D01*
X102890714Y-52745857D01*
X102890714Y-52841095D01*
X102843095Y-52983952D01*
X102271666Y-53555380D01*
X102890714Y-53555380D01*
X104192523Y-59143380D02*
X103859190Y-58667190D01*
X103621095Y-59143380D02*
X103621095Y-58143380D01*
X104002047Y-58143380D01*
X104097285Y-58191000D01*
X104144904Y-58238619D01*
X104192523Y-58333857D01*
X104192523Y-58476714D01*
X104144904Y-58571952D01*
X104097285Y-58619571D01*
X104002047Y-58667190D01*
X103621095Y-58667190D01*
X109478904Y-58191000D02*
X109383666Y-58143380D01*
X109240809Y-58143380D01*
X109097952Y-58191000D01*
X109002714Y-58286238D01*
X108955095Y-58381476D01*
X108907476Y-58571952D01*
X108907476Y-58714809D01*
X108955095Y-58905285D01*
X109002714Y-59000523D01*
X109097952Y-59095761D01*
X109240809Y-59143380D01*
X109336047Y-59143380D01*
X109478904Y-59095761D01*
X109526523Y-59048142D01*
X109526523Y-58714809D01*
X109336047Y-58714809D01*
X111590333Y-51523380D02*
X111257000Y-51047190D01*
X111018904Y-51523380D02*
X111018904Y-50523380D01*
X111399857Y-50523380D01*
X111495095Y-50571000D01*
X111542714Y-50618619D01*
X111590333Y-50713857D01*
X111590333Y-50856714D01*
X111542714Y-50951952D01*
X111495095Y-50999571D01*
X111399857Y-51047190D01*
X111018904Y-51047190D01*
X112495095Y-50523380D02*
X112018904Y-50523380D01*
X111971285Y-50999571D01*
X112018904Y-50951952D01*
X112114142Y-50904333D01*
X112352238Y-50904333D01*
X112447476Y-50951952D01*
X112495095Y-50999571D01*
X112542714Y-51094809D01*
X112542714Y-51332904D01*
X112495095Y-51428142D01*
X112447476Y-51475761D01*
X112352238Y-51523380D01*
X112114142Y-51523380D01*
X112018904Y-51475761D01*
X111971285Y-51428142D01*
X119464333Y-57365380D02*
X119131000Y-56889190D01*
X118892904Y-57365380D02*
X118892904Y-56365380D01*
X119273857Y-56365380D01*
X119369095Y-56413000D01*
X119416714Y-56460619D01*
X119464333Y-56555857D01*
X119464333Y-56698714D01*
X119416714Y-56793952D01*
X119369095Y-56841571D01*
X119273857Y-56889190D01*
X118892904Y-56889190D01*
X120321476Y-56365380D02*
X120131000Y-56365380D01*
X120035761Y-56413000D01*
X119988142Y-56460619D01*
X119892904Y-56603476D01*
X119845285Y-56793952D01*
X119845285Y-57174904D01*
X119892904Y-57270142D01*
X119940523Y-57317761D01*
X120035761Y-57365380D01*
X120226238Y-57365380D01*
X120321476Y-57317761D01*
X120369095Y-57270142D01*
X120416714Y-57174904D01*
X120416714Y-56936809D01*
X120369095Y-56841571D01*
X120321476Y-56793952D01*
X120226238Y-56746333D01*
X120035761Y-56746333D01*
X119940523Y-56793952D01*
X119892904Y-56841571D01*
X119845285Y-56936809D01*
X119210333Y-53555380D02*
X118877000Y-53079190D01*
X118638904Y-53555380D02*
X118638904Y-52555380D01*
X119019857Y-52555380D01*
X119115095Y-52603000D01*
X119162714Y-52650619D01*
X119210333Y-52745857D01*
X119210333Y-52888714D01*
X119162714Y-52983952D01*
X119115095Y-53031571D01*
X119019857Y-53079190D01*
X118638904Y-53079190D01*
X119543666Y-52555380D02*
X120210333Y-52555380D01*
X119781761Y-53555380D01*
X138387380Y-118634904D02*
X139196904Y-118634904D01*
X139292142Y-118587285D01*
X139339761Y-118539666D01*
X139387380Y-118444428D01*
X139387380Y-118253952D01*
X139339761Y-118158714D01*
X139292142Y-118111095D01*
X139196904Y-118063476D01*
X138387380Y-118063476D01*
X138482619Y-117634904D02*
X138435000Y-117587285D01*
X138387380Y-117492047D01*
X138387380Y-117253952D01*
X138435000Y-117158714D01*
X138482619Y-117111095D01*
X138577857Y-117063476D01*
X138673095Y-117063476D01*
X138815952Y-117111095D01*
X139387380Y-117682523D01*
X139387380Y-117063476D01*
X123449095Y-46967380D02*
X123782428Y-47967380D01*
X124115761Y-46967380D01*
X124972904Y-47015000D02*
X124877666Y-46967380D01*
X124734809Y-46967380D01*
X124591952Y-47015000D01*
X124496714Y-47110238D01*
X124449095Y-47205476D01*
X124401476Y-47395952D01*
X124401476Y-47538809D01*
X124449095Y-47729285D01*
X124496714Y-47824523D01*
X124591952Y-47919761D01*
X124734809Y-47967380D01*
X124830047Y-47967380D01*
X124972904Y-47919761D01*
X125020523Y-47872142D01*
X125020523Y-47538809D01*
X124830047Y-47538809D01*
X125401476Y-47681666D02*
X125877666Y-47681666D01*
X125306238Y-47967380D02*
X125639571Y-46967380D01*
X125972904Y-47967380D01*
M02*
