G04 #@! TF.GenerationSoftware,KiCad,Pcbnew,5.0.0-rc2-dev-unknown-0f0d9af~63~ubuntu16.04.1*
G04 #@! TF.CreationDate,2018-03-29T12:16:37-07:00*
G04 #@! TF.ProjectId,mojoback_sram,6D6F6A6F6261636B5F7372616D2E6B69,rev?*
G04 #@! TF.SameCoordinates,Original*
G04 #@! TF.FileFunction,Soldermask,Bot*
G04 #@! TF.FilePolarity,Negative*
%FSLAX46Y46*%
G04 Gerber Fmt 4.6, Leading zero omitted, Abs format (unit mm)*
G04 Created by KiCad (PCBNEW 5.0.0-rc2-dev-unknown-0f0d9af~63~ubuntu16.04.1) date Thu Mar 29 12:16:37 2018*
%MOMM*%
%LPD*%
G01*
G04 APERTURE LIST*
%ADD10C,2.400000*%
%ADD11C,4.400000*%
%ADD12R,1.924000X1.924000*%
%ADD13R,2.432000X2.432000*%
%ADD14C,1.924000*%
%ADD15C,2.432000*%
%ADD16C,1.900000*%
%ADD17C,2.000000*%
%ADD18R,2.000000X2.000000*%
G04 APERTURE END LIST*
D10*
X130175000Y-66135000D03*
X108275000Y-62735000D03*
X130875000Y-58435000D03*
D11*
X96975000Y-45835000D03*
X106075000Y-119835000D03*
X106075000Y-114135000D03*
D12*
X85223500Y-38900001D03*
X82683500Y-38900001D03*
X82683500Y-41440001D03*
X85223500Y-41440001D03*
X85223500Y-43980001D03*
X82683500Y-43980001D03*
X82683500Y-46520001D03*
X85223500Y-46520001D03*
D13*
X80143500Y-122720001D03*
X85223500Y-122720001D03*
X82683500Y-122720001D03*
X85223500Y-125260001D03*
X82683500Y-125260001D03*
X80143500Y-125260001D03*
X87763500Y-125260001D03*
X87763500Y-122720001D03*
D14*
X143643500Y-46520001D03*
X146183500Y-46520001D03*
X146183500Y-49060001D03*
X143643500Y-38900001D03*
X143643500Y-41440001D03*
X143643500Y-43980001D03*
D12*
X143643500Y-49060001D03*
D14*
X146183500Y-38900001D03*
X146183500Y-41440001D03*
X146183500Y-43980001D03*
X123323500Y-51600001D03*
X125863500Y-51600001D03*
X128403500Y-51600001D03*
X130943500Y-51600001D03*
X133483500Y-51600001D03*
X123323500Y-54140001D03*
X125863500Y-54140001D03*
X128403500Y-54140001D03*
X130943500Y-54140001D03*
D12*
X133483500Y-54140001D03*
D14*
X146183500Y-110020001D03*
X146183500Y-92240001D03*
X146183500Y-64300001D03*
X146183500Y-66840001D03*
X146183500Y-87160001D03*
X146183500Y-84620001D03*
X146183500Y-71920001D03*
X143643500Y-117640001D03*
X146183500Y-115100001D03*
D12*
X146183500Y-59220001D03*
D14*
X146183500Y-61760001D03*
X146183500Y-69380001D03*
D12*
X146183500Y-56680001D03*
D14*
X146183500Y-74460001D03*
X146183500Y-97320001D03*
X146183500Y-107480001D03*
X146183500Y-79540001D03*
X143643500Y-102400001D03*
X143643500Y-74460001D03*
X146183500Y-102400001D03*
X146183500Y-94780001D03*
X146183500Y-82080001D03*
X143643500Y-56680001D03*
X146183500Y-112560001D03*
X143643500Y-82080001D03*
X143643500Y-110020001D03*
X146183500Y-77000001D03*
X143643500Y-61760001D03*
X146183500Y-99860001D03*
X143643500Y-99860001D03*
X146183500Y-89700001D03*
X143643500Y-112560001D03*
X143643500Y-107480001D03*
X143643500Y-97320001D03*
X143643500Y-92240001D03*
X143643500Y-77000001D03*
X143643500Y-104940001D03*
X143643500Y-69380001D03*
X146183500Y-104940001D03*
X143643500Y-64300001D03*
X143643500Y-66840001D03*
X143643500Y-59220001D03*
X146183500Y-117640001D03*
X143643500Y-79540001D03*
X143643500Y-84620001D03*
X143643500Y-94780001D03*
X143643500Y-71920001D03*
X143643500Y-87160001D03*
X143643500Y-115100001D03*
X143643500Y-89700001D03*
X82683500Y-112560001D03*
X80143500Y-56680001D03*
X80143500Y-69380001D03*
X80143500Y-66840001D03*
X80143500Y-71920001D03*
X80143500Y-115100001D03*
X82683500Y-115100001D03*
X82683500Y-64300001D03*
X80143500Y-99860001D03*
X80143500Y-102400001D03*
X80143500Y-104940001D03*
X80143500Y-92240001D03*
X80143500Y-87160001D03*
X80143500Y-89700001D03*
X82683500Y-104940001D03*
X80143500Y-74460001D03*
X80143500Y-77000001D03*
X80143500Y-79540001D03*
D12*
X80143500Y-117640001D03*
D14*
X80143500Y-64300001D03*
X82683500Y-117640001D03*
D12*
X82683500Y-56680001D03*
D14*
X82683500Y-74460001D03*
X82683500Y-110020001D03*
X82683500Y-107480001D03*
X80143500Y-59220001D03*
X80143500Y-61760001D03*
X82683500Y-99860001D03*
X82683500Y-89700001D03*
X80143500Y-82080001D03*
X80143500Y-84620001D03*
X80143500Y-94780001D03*
X80143500Y-97320001D03*
X80143500Y-107480001D03*
X82683500Y-87160001D03*
X82683500Y-71920001D03*
X82683500Y-84620001D03*
X80143500Y-110020001D03*
X80143500Y-112560001D03*
X82683500Y-66840001D03*
X82683500Y-82080001D03*
X82683500Y-94780001D03*
X82683500Y-102400001D03*
X82683500Y-77000001D03*
D12*
X82683500Y-59220001D03*
D14*
X82683500Y-61760001D03*
X82683500Y-69380001D03*
X82683500Y-97320001D03*
X82683500Y-92240001D03*
X82683500Y-79540001D03*
D12*
X141103500Y-56680001D03*
X141103500Y-59220001D03*
D14*
X141103500Y-61760001D03*
X141103500Y-64300001D03*
X141103500Y-66840001D03*
X141103500Y-69380001D03*
X141103500Y-71920001D03*
X141103500Y-74460001D03*
X141103500Y-77000001D03*
X141103500Y-79540001D03*
X141103500Y-82080001D03*
X141103500Y-84620001D03*
X141103500Y-87160001D03*
X141103500Y-89700001D03*
X141103500Y-92240001D03*
X141103500Y-94780001D03*
X141103500Y-97320001D03*
X141103500Y-99860001D03*
X141103500Y-102400001D03*
X141103500Y-104940001D03*
X141103500Y-107480001D03*
X141103500Y-110020001D03*
X141103500Y-112560001D03*
X141103500Y-115100001D03*
X141103500Y-117640001D03*
X138563500Y-117640001D03*
X138563500Y-115100001D03*
X138563500Y-112560001D03*
X138563500Y-110020001D03*
X138563500Y-107480001D03*
X138563500Y-104940001D03*
X138563500Y-102400001D03*
X138563500Y-99860001D03*
X138563500Y-97320001D03*
X138563500Y-94780001D03*
X138563500Y-92240001D03*
X138563500Y-89700001D03*
X138563500Y-87160001D03*
X138563500Y-84620001D03*
X138563500Y-82080001D03*
X138563500Y-79540001D03*
X138563500Y-77000001D03*
X138563500Y-74460001D03*
X138563500Y-71920001D03*
X138563500Y-69380001D03*
X138563500Y-66840001D03*
X138563500Y-64300001D03*
X138563500Y-61760001D03*
X138563500Y-59220001D03*
X138563500Y-56680001D03*
D12*
X87763500Y-56680001D03*
X87763500Y-59220001D03*
D14*
X87763500Y-61760001D03*
X87763500Y-64300001D03*
X87763500Y-66840001D03*
X87763500Y-69380001D03*
X87763500Y-71920001D03*
X87763500Y-74460001D03*
X87763500Y-77000001D03*
X87763500Y-79540001D03*
X87763500Y-82080001D03*
X87763500Y-84620001D03*
X87763500Y-87160001D03*
X87763500Y-89700001D03*
X87763500Y-92240001D03*
X87763500Y-94780001D03*
X87763500Y-97320001D03*
X87763500Y-99860001D03*
X87763500Y-102400001D03*
X87763500Y-104940001D03*
X87763500Y-107480001D03*
X87763500Y-110020001D03*
X87763500Y-112560001D03*
X87763500Y-115100001D03*
X87763500Y-117640001D03*
D12*
X85223500Y-117640001D03*
D14*
X85223500Y-115100001D03*
X85223500Y-112560001D03*
X85223500Y-110020001D03*
X85223500Y-107480001D03*
X85223500Y-104940001D03*
X85223500Y-102400001D03*
X85223500Y-99860001D03*
X85223500Y-97320001D03*
X85223500Y-94780001D03*
X85223500Y-92240001D03*
X85223500Y-89700001D03*
X85223500Y-87160001D03*
X85223500Y-84620001D03*
X85223500Y-82080001D03*
X85223500Y-79540001D03*
X85223500Y-77000001D03*
X85223500Y-74460001D03*
X85223500Y-71920001D03*
X85223500Y-69380001D03*
X85223500Y-66840001D03*
X85223500Y-64300001D03*
X85223500Y-61760001D03*
X85223500Y-59220001D03*
X85223500Y-56680001D03*
D15*
X82368943Y-51600001D03*
D13*
X85223500Y-54140001D03*
D15*
X82368943Y-54140001D03*
D13*
X85223500Y-51600001D03*
D14*
X138563500Y-122720001D03*
X138563500Y-125260001D03*
X141103500Y-122720001D03*
X141103500Y-125260001D03*
X143643500Y-122720001D03*
X143643500Y-125260001D03*
X146183500Y-122720001D03*
X146183500Y-125260001D03*
X134090949Y-80045051D03*
X135887000Y-78249000D03*
D16*
X100835000Y-130319000D03*
X116075000Y-130319000D03*
X121155000Y-130319000D03*
X123695000Y-130319000D03*
X131315000Y-120159000D03*
X131315000Y-112539000D03*
X133855000Y-115079000D03*
X133855000Y-120159000D03*
X131315000Y-122699000D03*
X131315000Y-117619000D03*
X131315000Y-115079000D03*
X133855000Y-117619000D03*
X133855000Y-112539000D03*
X133855000Y-122699000D03*
X123695000Y-127779000D03*
X121155000Y-127779000D03*
X116075000Y-127779000D03*
X100835000Y-127779000D03*
X118615000Y-127779000D03*
X128775000Y-127779000D03*
X98295000Y-127779000D03*
X110995000Y-127779000D03*
X105915000Y-127779000D03*
X93215000Y-127779000D03*
X126235000Y-127779000D03*
X95755000Y-127779000D03*
X108455000Y-127779000D03*
X103375000Y-127779000D03*
X113535000Y-127779000D03*
X116075000Y-107459000D03*
X100835000Y-107459000D03*
X118615000Y-107459000D03*
X128775000Y-107459000D03*
X98295000Y-107459000D03*
X110995000Y-107459000D03*
X105915000Y-107459000D03*
X93215000Y-107459000D03*
X126235000Y-107459000D03*
X95755000Y-107459000D03*
X108455000Y-107459000D03*
X103375000Y-107459000D03*
X113535000Y-107459000D03*
X121155000Y-107459000D03*
X123695000Y-107459000D03*
X128775000Y-125239000D03*
X128775000Y-122699000D03*
X128775000Y-120159000D03*
X128775000Y-117619000D03*
X128775000Y-115079000D03*
X128775000Y-112539000D03*
X128775000Y-109999000D03*
X126235000Y-122699000D03*
X126235000Y-112539000D03*
X126235000Y-117619000D03*
X126235000Y-125239000D03*
X126235000Y-115079000D03*
X126235000Y-109999000D03*
X126235000Y-120159000D03*
X123695000Y-125239000D03*
X123695000Y-122699000D03*
X123695000Y-112539000D03*
X123695000Y-109999000D03*
X121155000Y-122699000D03*
X121155000Y-125239000D03*
X121155000Y-109999000D03*
X118615000Y-109999000D03*
X116075000Y-109999000D03*
X113535000Y-109999000D03*
X110995000Y-109999000D03*
X108455000Y-109999000D03*
X105915000Y-109999000D03*
X103375000Y-109999000D03*
X100835000Y-109999000D03*
X98295000Y-109999000D03*
X95755000Y-109999000D03*
X93215000Y-109999000D03*
X118615000Y-125239000D03*
X103375000Y-125239000D03*
X100835000Y-125239000D03*
X98295000Y-125239000D03*
X108455000Y-125239000D03*
X113535000Y-125239000D03*
X105915000Y-125239000D03*
X95755000Y-125239000D03*
X116075000Y-125239000D03*
X110995000Y-125239000D03*
X100835000Y-122699000D03*
X93215000Y-125239000D03*
D11*
X108648000Y-42417000D03*
X133648000Y-42417000D03*
D17*
X125993000Y-40507000D03*
X123703000Y-40507000D03*
X121413000Y-40507000D03*
X119123000Y-40507000D03*
X116833000Y-40507000D03*
X124848000Y-42487000D03*
X122558000Y-42487000D03*
X120268000Y-42487000D03*
X117978000Y-42487000D03*
X115688000Y-42487000D03*
X125993000Y-44467000D03*
X123703000Y-44467000D03*
X121413000Y-44467000D03*
X119123000Y-44467000D03*
D18*
X116833000Y-44467000D03*
D14*
X91945000Y-85361000D03*
X91945000Y-87901000D03*
D11*
X101275000Y-97265000D03*
D10*
X80010000Y-48895000D03*
M02*
